<!-- TripCanvas 워드마크 로고.
     원본 캔버스(800x600)는 로고 주변 여백이 커서, 실제 그림이 있는 영역만
     viewBox로 잘라냈다(측정값: x82~718, y233~367 + 약간의 패딩).
     width/height를 지정하지 않았으므로 크기는 <img>의 CSS로 조절한다. -->
<svg viewBox="78 229 644 142" xmlns="http://www.w3.org/2000/svg">

 <g>
  <title>Layer 1</title>
  <g fill="#000000">
   <path d="m239.58647,315.12581c0.00512,-7.49353 -0.01139,-14.48717 0.02002,-21.48058c0.02899,-6.44677 2.67196,-11.08299 8.91137,-13.61425c11.33713,-4.59932 22.85202,-5.84003 34.62552,-2.15203c11.08435,3.47214 18.38324,10.71381 20.22946,22.41985c1.80622,11.45228 1.35386,22.75105 -6.401,32.27406c-8.34991,10.25376 -19.67428,12.24097 -32.08154,10.52716c-0.98331,-0.1358 -1.94617,-0.41684 -2.92853,-0.56375c-0.30011,-0.04492 -0.63354,0.13297 -1.89661,0.43402c0,5.69095 -0.23098,11.63263 0.08082,17.54569c0.20962,3.97497 -1.70112,5.25781 -5.12787,5.76205c-10.72388,1.57788 -15.32059,-2.26584 -15.38788,-13.18704c-0.07694,-12.48804 -0.03485,-24.97675 -0.04376,-37.96518m39.0534,8.50058c4.85587,-4.64618 4.95392,-10.67502 4.70911,-16.72128c-0.42395,-10.47026 -6.80084,-15.70726 -17.19226,-14.39624c-3.90216,0.49231 -6.05155,2.36021 -6.00107,6.48486c0.07535,6.15707 -0.35355,12.35474 0.24136,18.45624c0.28974,2.97174 -2.27752,7.47088 2.94608,8.88205c3.58777,0.96924 7.26181,1.12457 10.83173,-0.07715c1.38858,-0.46747 2.62078,-1.39954 4.46505,-2.62848z" fill="#46406f"/>
   <path d="m639.17655,341.95088c-10.94549,2.6446 -21.50604,2.99909 -31.84649,-0.65036c-9.17749,-3.23898 -14.21601,-10.93277 -13.58331,-19.88943c0.67755,-9.59155 5.38885,-15.06717 15.48309,-17.57971c3.69629,-0.92002 7.50812,-1.40688 11.28729,-1.95232c3.12402,-0.45087 6.27057,-0.81193 9.41986,-1.00395c3.6966,-0.22539 3.62213,-2.19144 2.35413,-4.72423c-1.13452,-2.26619 -3.22968,-3.15556 -5.58057,-3.77571c-6.89899,-1.81981 -13.52392,-0.28795 -20.14593,1.451c-2.30445,0.60517 -4.77967,2.50055 -6.72669,-0.42636c-1.89032,-2.84175 -3.12829,-5.90019 -1.45215,-9.37849c1.06348,-2.20677 2.67102,-3.86257 4.9328,-4.71422c12.65821,-4.76633 25.34772,-5.1351 37.87305,0.33855c8.00732,3.49926 11.72058,10.01579 11.8042,18.62847c0.08252,8.48939 0.03192,16.97999 0.04797,25.47007c0.0224,11.8475 -1.88964,14.41705 -13.86725,18.20669m-25.30017,-20.20727c-0.11218,3.7348 2.2212,5.56351 5.43061,5.93194c4.52411,0.51935 9.26525,1.53241 13.33545,-1.70428c0.4292,-0.34137 0.52783,-1.17685 0.65454,-1.80826c1.50812,-7.51907 -0.14392,-9.6528 -7.6156,-8.56787c-4.25983,0.61856 -9.71839,-0.46728 -11.805,6.14847z" fill="#46406f"/>
   <path d="m418.92436,292.63217c-7.23786,-2.14337 -13.969,-0.83433 -20.50513,1.13878c-3.96887,1.19809 -7.04034,1.81793 -8.81607,-2.95929c-1.64996,-4.43876 -0.47662,-8.33975 3.60184,-10.7218c4.56646,-2.66705 9.70904,-3.45461 14.82019,-4.01233c7.69641,-0.83978 15.27704,-0.05101 22.58197,2.70113c8.68255,3.27115 13.34155,9.76063 13.42358,19.01628c0.09143,10.31735 -0.12176,20.63946 0.11029,30.95248c0.099,4.39749 -1.64349,7.52921 -5.26794,9.42246c-14.28656,7.46267 -29.07276,8.00711 -43.68799,1.47943c-7.79328,-3.48075 -10.54968,-10.62995 -9.98309,-19.04218c0.57699,-8.56732 5.31579,-13.63052 13.2785,-16.14654c6.25482,-1.97638 12.71307,-2.31183 19.17389,-2.90596c2.21747,-0.2039 5.72162,0.45898 6.3551,-2.62033c0.65723,-3.19474 -1.8916,-5.05138 -5.08514,-6.30213m-4.58673,35.53301c2.30053,-0.18961 4.69043,-0.04734 6.88305,-0.6377c4.60871,-1.24075 2.90509,-5.24264 3.15906,-8.30346c0.15759,-1.89969 -0.0863,-3.73471 -2.68378,-3.82605c-4.66369,-0.16395 -9.22973,0.41055 -13.62341,1.98876c-2.0404,0.73291 -3.14868,2.24848 -3.13086,4.55048c0.01697,2.19055 0.8725,3.78561 2.77582,4.88294c1.78924,1.03158 3.75604,1.17468 6.62012,1.34503z" fill="#46406f"/>
   <path d="m378.06465,269.99092c1.09121,3.54398 0.00814,6.256 -1.75675,8.81746c-1.67752,2.43465 -3.5299,3.13048 -6.28274,1.30087c-5.54288,-3.684 -11.86096,-4.37257 -18.26014,-3.56823c-8.2492,1.03686 -13.54589,5.98842 -16.26104,13.68937c-2.15653,6.11658 -2.29929,12.52385 -1.01471,18.74811c3.13614,15.19583 18.08044,22.00183 33.62909,15.58829c3.25195,-1.3414 6.45172,-4.24692 9.31683,0.73407c2.60932,4.53634 2.03986,9.84317 -1.93182,13.11856c-5.32126,4.38831 -11.87534,5.2453 -18.35663,5.45041c-15.99487,0.50625 -30.26218,-3.39789 -38.99381,-18.27017c-11.55047,-19.67365 -7.66168,-54.43212 19.58387,-64.04209c11.24871,-3.96762 22.50232,-4.16845 33.51007,1.08408c3.10382,1.48105 5.64566,3.53223 6.81778,7.34927z" fill="#46406f"/>
   <path d="m497.70445,302.38069c0.13019,-4.3797 -0.53321,-7.8937 -4.94965,-9.17013c-4.82055,-1.39322 -9.58386,-1.38887 -13.86444,1.58993c-1.72314,1.1991 -1.20691,3.3483 -1.20972,5.13025c-0.0191,11.98822 -0.15112,23.9805 0.12775,35.9628c0.11072,4.75708 -1.61688,6.8259 -6.30048,6.59845c-2.15954,-0.10492 -4.34808,0.11548 -6.48449,-0.13879c-4.83576,-0.5755 -7.5553,-3.40516 -7.59418,-8.27262c-0.11175,-13.98559 -0.04248,-27.97268 -0.04138,-41.95916c0.00036,-4.93116 2.83014,-8.15751 6.8327,-10.25666c12.6731,-6.64639 25.89838,-8.29182 39.52521,-3.28813c8.75958,3.21646 13.68518,9.42009 14.40826,19.03446c1.00122,13.31254 0.18372,26.62736 0.55762,39.93415c0.08752,3.11289 -1.30145,4.68235 -4.34399,4.83023c-1.99433,0.09696 -3.99408,0.17032 -5.98963,0.13868c-7.49701,-0.1189 -10.45264,-2.92112 -10.64569,-10.69846c-0.2066,-8.32013 -0.04626,-16.64938 -0.04419,-24.97467c0.00037,-1.33215 0.01093,-2.66428 0.0163,-4.46033z" fill="#46406f"/>
   <path d="m668.09819,284.63794c9.47168,-9.63786 31.12255,-11.99902 42.20501,-4.86847c3.56214,2.29187 5.27039,5.50107 4.55725,9.75391c-0.81543,4.86322 -3.44177,6.39619 -8.0993,4.77156c-5.22144,-1.82129 -10.54266,-3.28021 -16.09863,-2.55679c-2.70716,0.35249 -6.21711,0.8296 -6.32422,4.46478c-0.09973,3.38556 3.25073,3.83598 5.74194,4.50247c5.30029,1.41798 10.68726,2.52356 15.74408,4.74228c8.33386,3.65649 12.4292,9.79037 12.17456,18.22674c-0.24689,8.17658 -4.98468,14.80417 -13.08111,17.72214c-10.5586,3.80536 -21.26673,3.61676 -31.79151,-0.00845c-7.42798,-2.55853 -10.51343,-8.36844 -8.08697,-14.19599c1.36761,-3.28466 3.16034,-5.28485 7.23657,-3.12646c5.83655,3.09048 12.17212,4.43616 18.82794,3.79031c2.95435,-0.28668 5.86475,-0.9685 6.17352,-4.55059c0.29297,-3.3993 -2.43768,-4.43503 -5.07714,-5.17939c-4.95472,-1.39727 -10.07343,-2.32248 -14.88672,-4.09002c-13.1073,-4.81336 -17.06641,-17.36606 -9.21527,-29.39803z" fill="#46406f"/>
   <path d="m126.0596,300.12627c-0.0104,12.4787 -0.16755,24.46014 0.04905,36.43481c0.07573,4.18686 -1.79384,5.73877 -5.53114,5.87723c-2.32576,0.08624 -4.66354,0.17071 -6.98314,0.03574c-5.46429,-0.31794 -8.14436,-3.01658 -8.18047,-8.57437c-0.10263,-15.80463 -0.05894,-31.61019 -0.08496,-47.41535c-0.01324,-8.05075 -0.06456,-8.08943 -8.01817,-8.08412c-2.49556,0.00166 -5.0009,-0.14668 -7.48451,0.02418c-4.21492,0.28997 -7.0493,-0.77766 -7.65456,-5.62516c-0.73273,-5.86829 0.70714,-9.40523 5.09599,-11.12838c1.75303,-0.68826 3.55567,-0.77739 5.39219,-0.77815c16.30444,-0.00665 32.60891,-0.04341 48.91328,-0.01604c5.73309,0.00963 8.06366,2.40372 8.19501,8.15853c0.11484,5.03178 -3.00669,8.88141 -7.84607,9.21466c-3.80966,0.26233 -7.65389,0.22224 -11.47363,0.07704c-3.17687,-0.12076 -4.52015,1.03078 -4.41919,4.33102c0.17285,5.65117 0.03686,11.31177 0.03032,17.46836z" fill="#46406f"/>
   <path d="m572.65647,333.88429c-2.72302,7.45499 -8.37793,9.50577 -15.2301,9.36097c-6.92334,-0.14631 -11.95318,-2.92484 -14.68219,-9.81919c-6.25604,-15.80435 -12.00458,-31.76877 -16.90539,-48.04712c-1.22132,-4.05676 0.06146,-6.22764 3.89825,-7.65259c8.26624,-3.07 14.03302,-0.45608 16.58984,7.96767c3.71833,12.25049 7.30164,24.54198 11.9444,37.00478c1.04498,-3.35648 2.21033,-6.68097 3.11231,-10.07547c2.6914,-10.12924 5.24786,-20.29428 7.92297,-30.42794c1.15344,-4.36921 4.95868,-6.23892 11.09412,-5.628c5.51251,0.54889 8.39862,3.15901 8.64105,7.8537c0.22894,4.43384 -1.34223,8.52531 -2.54932,12.6645c-3.64331,12.49303 -8.55615,24.51705 -13.83594,36.79869z" fill="#46406f"/>
   <path d="m178.16709,293.46596c-4.13324,0.87254 -5.34182,3.1331 -5.27627,6.93129c0.20703,11.99632 -0.08393,24.00178 0.16409,35.99657c0.09174,4.43618 -1.86813,6.01809 -5.84094,6.07824c-2.16528,0.03281 -4.3436,0.13852 -6.49512,-0.04043c-5.1514,-0.42844 -8.11111,-3.09494 -8.19238,-8.30387c-0.21573,-13.82919 -0.20017,-27.66556 -0.01239,-41.49548c0.06509,-4.79491 2.54486,-8.58739 6.82513,-10.94782c8.405,-4.63508 17.45783,-6.58586 26.97446,-5.61863c8.03906,0.81706 12.13711,6.52505 9.83792,12.83891c-0.92337,2.53563 -2.3797,3.69926 -5.17981,3.62321c-4.14465,-0.11257 -8.34335,-0.47811 -12.80469,0.93801z" fill="#46406f"/>
   <path d="m215.39872,276.86977c7.69089,1.48039 9.5763,3.54081 9.6045,10.63315c0.06475,16.28268 -0.09116,32.56701 0.09158,48.8479c0.04819,4.29239 -1.59296,6.15972 -5.73917,6.1206c-1.99338,-0.0188 -3.99167,0.09531 -5.97989,-0.00546c-5.44458,-0.27597 -8.67569,-2.89368 -8.74417,-8.23407c-0.22571,-17.60867 -0.07245,-35.22203 -0.1073,-52.83351c-0.00488,-2.45693 1.12692,-3.68471 3.50232,-3.90239c2.31061,-0.21172 4.62106,-0.4253 7.37213,-0.62622z" fill="#46406f"/>
   <path d="m217.19444,265.64379c-1.92157,2.98471 -3.6181,3.11869 -5.45996,0.37803c-3.05219,-4.54155 -6.22693,-9.01955 -8.51224,-14.00803c-2.70938,-5.91415 -1.38944,-12.09956 3.14981,-15.79334c4.40878,-3.58761 10.52506,-3.792 15.24112,-0.5093c4.76028,3.31349 6.40768,9.39032 4.09671,15.52605c-1.94846,5.17311 -5.25226,9.57231 -8.51544,14.40659m-3.01694,-16.01784c4.17783,-1.89943 5.2402,-4.19255 2.8136,-6.22565c-1.70999,-1.43271 -3.86929,-1.75119 -5.26962,0.08318c-1.87598,2.45739 -0.96418,4.61846 2.45602,6.14247z" fill="#46406f"/>
  </g>
 </g>
</svg>